<svg width="18" height="21" viewBox="0 0 18 21" fill="none" xmlns="http://www.w3.org/2000/svg">
<path d="M3 20.8379C2.16667 20.8379 1.45833 20.5462 0.875 19.9629C0.291667 19.3796 0 18.6712 0 17.8379V3.83789C0 3.00456 0.291667 2.29622 0.875 1.71289C1.45833 1.12956 2.16667 0.837891 3 0.837891H14V16.8379H3C2.71667 16.8379 2.47917 16.9337 2.2875 17.1254C2.09583 17.3171 2 17.5546 2 17.8379C2 18.1212 2.09583 18.3587 2.2875 18.5504C2.47917 18.7421 2.71667 18.8379 3 18.8379H16V2.83789H18V20.8379H3ZM6 14.8379H12V2.83789H6V14.8379ZM4 14.8379V2.83789H3C2.71667 2.83789 2.47917 2.93372 2.2875 3.12539C2.09583 3.31706 2 3.55456 2 3.83789V15.0129C2.16667 14.9629 2.32917 14.9212 2.4875 14.8879C2.64583 14.8546 2.81667 14.8379 3 14.8379H4Z" fill="#FF6130"/>
</svg>
