<svg width="23" height="19" viewBox="0 0 23 19" fill="none" xmlns="http://www.w3.org/2000/svg">
<path d="M10.668 15.468V5.61797C9.98464 5.21797 9.25964 4.91797 8.49297 4.71797C7.7263 4.51797 6.9513 4.41797 6.16797 4.41797C5.56797 4.41797 4.97214 4.4763 4.38047 4.59297C3.7888 4.70964 3.21797 4.88464 2.66797 5.11797V15.018C3.2513 14.818 3.83047 14.668 4.40547 14.568C4.98047 14.468 5.56797 14.418 6.16797 14.418C6.9513 14.418 7.7138 14.5055 8.45547 14.6805C9.19714 14.8555 9.93464 15.118 10.668 15.468ZM11.668 18.418C10.868 17.7846 10.0013 17.293 9.06797 16.943C8.13464 16.593 7.16797 16.418 6.16797 16.418C5.46797 16.418 4.78047 16.5096 4.10547 16.693C3.43047 16.8763 2.78464 17.1346 2.16797 17.468C1.81797 17.6513 1.48047 17.643 1.15547 17.443C0.830469 17.243 0.667969 16.9513 0.667969 16.568V4.51797C0.667969 4.33464 0.713802 4.15964 0.805469 3.99297C0.897135 3.8263 1.03464 3.7013 1.21797 3.61797C1.98464 3.21797 2.78464 2.91797 3.61797 2.71797C4.4513 2.51797 5.3013 2.41797 6.16797 2.41797C7.4013 2.41797 8.4513 2.55964 9.31797 2.84297C10.1846 3.1263 11.118 3.55964 12.118 4.14297C12.3013 4.24297 12.4388 4.35964 12.5305 4.49297C12.6221 4.6263 12.668 4.8013 12.668 5.01797V15.468C13.4013 15.118 14.1388 14.8555 14.8805 14.6805C15.6221 14.5055 16.3846 14.418 17.168 14.418C17.768 14.418 18.3555 14.468 18.9305 14.568C19.5055 14.668 20.0846 14.818 20.668 15.018V2.99297C20.918 3.0763 21.1638 3.16797 21.4055 3.26797C21.6471 3.36797 21.8846 3.48464 22.118 3.61797C22.3013 3.7013 22.4388 3.8263 22.5305 3.99297C22.6221 4.15964 22.668 4.33464 22.668 4.51797V16.568C22.668 16.9513 22.5055 17.243 22.1805 17.443C21.8555 17.643 21.518 17.6513 21.168 17.468C20.5513 17.1346 19.9055 16.8763 19.2305 16.693C18.5555 16.5096 17.868 16.418 17.168 16.418C16.168 16.418 15.2013 16.593 14.268 16.943C13.3346 17.293 12.468 17.7846 11.668 18.418ZM15.168 12.418V1.41797L18.168 0.417969V11.418L15.168 12.418Z" fill="#EB4C79"/>
</svg>
