<svg xmlns="http://www.w3.org/2000/svg" width="29" height="28" viewBox="0 0 29 28" fill="none">
  <path d="M28.332 14C28.332 21.732 22.064 28 14.332 28C6.60003 28 0.332031 21.732 0.332031 14C0.332031 6.268 6.60003 0 14.332 0C22.064 0 28.332 6.268 28.332 14Z" fill="#EB4C79"/>
  <path d="M21.0385 10.7064C21.2206 10.5178 21.3214 10.2652 21.3191 10.003C21.3169 9.74083 21.2117 9.49002 21.0263 9.30461C20.8409 9.1192 20.5901 9.01403 20.3279 9.01176C20.0657 9.00948 19.8131 9.11027 19.6245 9.29243L12.8315 16.0854L9.53846 12.7924C9.34986 12.6103 9.09726 12.5095 8.83506 12.5118C8.57286 12.514 8.32205 12.6192 8.13664 12.8046C7.95123 12.99 7.84607 13.2408 7.84379 13.503C7.84151 13.7652 7.9423 14.0178 8.12446 14.2064L12.1245 18.2064C12.312 18.3939 12.5663 18.4992 12.8315 18.4992C13.0966 18.4992 13.3509 18.3939 13.5385 18.2064L21.0385 10.7064Z" fill="url(#paint0_linear_792_16989)"/>
  <defs>
    <linearGradient id="paint0_linear_792_16989" x1="10.3625" y1="9.96843" x2="12.4935" y2="20.6594" gradientUnits="userSpaceOnUse">
      <stop stop-color="white"/>
      <stop offset="1" stop-color="#E3FFD9"/>
    </linearGradient>
  </defs>
</svg>