<svg xmlns="http://www.w3.org/2000/svg" width="24" height="25" viewBox="0 0 24 25" fill="none">
  <path d="M6 22.9141C5.16667 22.9141 4.45833 22.6224 3.875 22.0391C3.29167 21.4557 3 20.7474 3 19.9141V5.91406C3 5.08073 3.29167 4.3724 3.875 3.78906C4.45833 3.20573 5.16667 2.91406 6 2.91406H17V18.9141H6C5.71667 18.9141 5.47917 19.0099 5.2875 19.2016C5.09583 19.3932 5 19.6307 5 19.9141C5 20.1974 5.09583 20.4349 5.2875 20.6266C5.47917 20.8182 5.71667 20.9141 6 20.9141H19V4.91406H21V22.9141H6ZM9 16.9141H15V4.91406H9V16.9141ZM7 16.9141V4.91406H6C5.71667 4.91406 5.47917 5.0099 5.2875 5.20156C5.09583 5.39323 5 5.63073 5 5.91406V17.0891C5.16667 17.0391 5.32917 16.9974 5.4875 16.9641C5.64583 16.9307 5.81667 16.9141 6 16.9141H7Z" fill="#FF6130"/>
</svg>