<svg width="21" height="20" viewBox="0 0 21 20" fill="none" xmlns="http://www.w3.org/2000/svg">
<path d="M11.668 9.6V6C11.668 5.71667 11.5721 5.47917 11.3805 5.2875C11.1888 5.09583 10.9513 5 10.668 5C10.3846 5 10.1471 5.09583 9.95547 5.2875C9.7638 5.47917 9.66797 5.71667 9.66797 6V9.975C9.66797 10.1083 9.69297 10.2375 9.74297 10.3625C9.79297 10.4875 9.86797 10.6 9.96797 10.7L13.268 14C13.4513 14.1833 13.6846 14.275 13.968 14.275C14.2513 14.275 14.4846 14.1833 14.668 14C14.8513 13.8167 14.943 13.5833 14.943 13.3C14.943 13.0167 14.8513 12.7833 14.668 12.6L11.668 9.6ZM10.668 20C9.28464 20 7.98464 19.7375 6.76797 19.2125C5.5513 18.6875 4.49297 17.975 3.59297 17.075C2.69297 16.175 1.98047 15.1167 1.45547 13.9C0.930469 12.6833 0.667969 11.3833 0.667969 10C0.667969 8.61667 0.930469 7.31667 1.45547 6.1C1.98047 4.88333 2.69297 3.825 3.59297 2.925C4.49297 2.025 5.5513 1.3125 6.76797 0.7875C7.98464 0.2625 9.28464 0 10.668 0C12.0513 0 13.3513 0.2625 14.568 0.7875C15.7846 1.3125 16.843 2.025 17.743 2.925C18.643 3.825 19.3555 4.88333 19.8805 6.1C20.4055 7.31667 20.668 8.61667 20.668 10C20.668 11.3833 20.4055 12.6833 19.8805 13.9C19.3555 15.1167 18.643 16.175 17.743 17.075C16.843 17.975 15.7846 18.6875 14.568 19.2125C13.3513 19.7375 12.0513 20 10.668 20ZM10.668 18C12.8846 18 14.7721 17.2208 16.3305 15.6625C17.8888 14.1042 18.668 12.2167 18.668 10C18.668 7.78333 17.8888 5.89583 16.3305 4.3375C14.7721 2.77917 12.8846 2 10.668 2C8.4513 2 6.5638 2.77917 5.00547 4.3375C3.44714 5.89583 2.66797 7.78333 2.66797 10C2.66797 12.2167 3.44714 14.1042 5.00547 15.6625C6.5638 17.2208 8.4513 18 10.668 18Z" fill="#EB4C79"/>
</svg>
