<svg xmlns="http://www.w3.org/2000/svg" width="24" height="25" viewBox="0 0 24 25" fill="none">
  <path d="M12 17.418C12.2833 17.418 12.5208 17.3221 12.7125 17.1305C12.9042 16.9388 13 16.7013 13 16.418V12.418C13 12.1346 12.9042 11.8971 12.7125 11.7055C12.5208 11.5138 12.2833 11.418 12 11.418C11.7167 11.418 11.4792 11.5138 11.2875 11.7055C11.0958 11.8971 11 12.1346 11 12.418V16.418C11 16.7013 11.0958 16.9388 11.2875 17.1305C11.4792 17.3221 11.7167 17.418 12 17.418ZM12 9.41797C12.2833 9.41797 12.5208 9.32214 12.7125 9.13047C12.9042 8.9388 13 8.7013 13 8.41797C13 8.13464 12.9042 7.89714 12.7125 7.70547C12.5208 7.5138 12.2833 7.41797 12 7.41797C11.7167 7.41797 11.4792 7.5138 11.2875 7.70547C11.0958 7.89714 11 8.13464 11 8.41797C11 8.7013 11.0958 8.9388 11.2875 9.13047C11.4792 9.32214 11.7167 9.41797 12 9.41797ZM12 22.418C10.6167 22.418 9.31667 22.1555 8.1 21.6305C6.88333 21.1055 5.825 20.393 4.925 19.493C4.025 18.593 3.3125 17.5346 2.7875 16.318C2.2625 15.1013 2 13.8013 2 12.418C2 11.0346 2.2625 9.73464 2.7875 8.51797C3.3125 7.3013 4.025 6.24297 4.925 5.34297C5.825 4.44297 6.88333 3.73047 8.1 3.20547C9.31667 2.68047 10.6167 2.41797 12 2.41797C13.3833 2.41797 14.6833 2.68047 15.9 3.20547C17.1167 3.73047 18.175 4.44297 19.075 5.34297C19.975 6.24297 20.6875 7.3013 21.2125 8.51797C21.7375 9.73464 22 11.0346 22 12.418C22 13.8013 21.7375 15.1013 21.2125 16.318C20.6875 17.5346 19.975 18.593 19.075 19.493C18.175 20.393 17.1167 21.1055 15.9 21.6305C14.6833 22.1555 13.3833 22.418 12 22.418ZM12 20.418C14.2333 20.418 16.125 19.643 17.675 18.093C19.225 16.543 20 14.6513 20 12.418C20 10.1846 19.225 8.29297 17.675 6.74297C16.125 5.19297 14.2333 4.41797 12 4.41797C9.76667 4.41797 7.875 5.19297 6.325 6.74297C4.775 8.29297 4 10.1846 4 12.418C4 14.6513 4.775 16.543 6.325 18.093C7.875 19.643 9.76667 20.418 12 20.418Z" fill="#2870ED"/>
</svg>