<svg xmlns="http://www.w3.org/2000/svg" width="25" height="24" viewBox="0 0 25 24" fill="none">
  <path d="M3.33464 0H22.0013C22.7085 0 23.3868 0.280951 23.8869 0.781048C24.387 1.28115 24.668 1.95942 24.668 2.66667V21.3333C24.668 22.8133 23.4813 24 22.0013 24H3.33464C2.62739 24 1.94911 23.719 1.44902 23.219C0.94892 22.7189 0.667969 22.0406 0.667969 21.3333V2.66667C0.667969 1.2 1.86797 0 3.33464 0ZM7.33464 18.6667H18.0013V16H7.33464V18.6667ZM18.0013 9.33333H14.668V5.33333H10.668V9.33333H7.33464L12.668 14.6667L18.0013 9.33333Z" fill="#2870ED"/>
</svg>