<svg xmlns="http://www.w3.org/2000/svg" width="25" height="24" viewBox="0 0 25 24" fill="none">
<path d="M20.168 0C21.4076 0 22.4674 0.440104 23.3477 1.32031C24.2279 2.20052 24.668 3.26042 24.668 4.5V19.5C24.668 20.7396 24.2279 21.7995 23.3477 22.6797C22.4674 23.5599 21.4076 24 20.168 24H17.2305V14.7031H20.3398L20.8086 11.0781H17.2305V8.76562C17.2305 8.18229 17.3529 7.74479 17.5977 7.45312C17.8424 7.16146 18.319 7.01562 19.0273 7.01562L20.9336 7V3.76562C20.2773 3.67188 19.3503 3.625 18.1523 3.625C16.7357 3.625 15.6029 4.04167 14.7539 4.875C13.9049 5.70833 13.4805 6.88542 13.4805 8.40625V11.0781H10.3555V14.7031H13.4805V24H5.16797C3.92839 24 2.86849 23.5599 1.98828 22.6797C1.10807 21.7995 0.667969 20.7396 0.667969 19.5V4.5C0.667969 3.26042 1.10807 2.20052 1.98828 1.32031C2.86849 0.440104 3.92839 0 5.16797 0H20.168Z" fill="#02A3A4"/>
</svg>