<svg xmlns="http://www.w3.org/2000/svg" width="28" height="29" viewBox="0 0 28 29" fill="none">
  <path d="M28 14.582C28 22.314 21.732 28.582 14 28.582C6.268 28.582 0 22.314 0 14.582C0 6.85003 6.268 0.582031 14 0.582031C21.732 0.582031 28 6.85003 28 14.582Z" fill="#A2B6C9"/>
  <path d="M20.7064 11.2885C20.8886 11.0999 20.9894 10.8473 20.9871 10.5851C20.9848 10.3229 20.8797 10.0721 20.6942 9.88664C20.5088 9.70123 20.258 9.59607 19.9958 9.59379C19.7336 9.59151 19.481 9.6923 19.2924 9.87446L12.4994 16.6675L9.20643 13.3745C9.01783 13.1923 8.76523 13.0915 8.50303 13.0938C8.24083 13.0961 7.99002 13.2012 7.80461 13.3866C7.6192 13.5721 7.51403 13.8229 7.51176 14.0851C7.50948 14.3473 7.61027 14.5999 7.79243 14.7885L11.7924 18.7885C11.98 18.9759 12.2343 19.0812 12.4994 19.0812C12.7646 19.0812 13.0189 18.9759 13.2064 18.7885L20.7064 11.2885Z" fill="#212121"/>
</svg>