<svg xmlns="http://www.w3.org/2000/svg" width="25" height="24" viewBox="0 0 25 24" fill="none">
  <path d="M12.668 9.024C12.0794 9.024 11.504 9.19854 11.0146 9.52555C10.5252 9.85255 10.1437 10.3173 9.9185 10.8611C9.69326 11.4049 9.63432 12.0033 9.74915 12.5806C9.86398 13.1579 10.1474 13.6881 10.5636 14.1043C10.9798 14.5206 11.5101 14.804 12.0874 14.9188C12.6647 15.0336 13.263 14.9747 13.8068 14.7495C14.3506 14.5242 14.8154 14.1428 15.1424 13.6534C15.4694 13.164 15.644 12.5886 15.644 12C15.644 11.6092 15.567 11.2222 15.4174 10.8611C15.2679 10.5001 15.0487 10.172 14.7723 9.89565C14.496 9.6193 14.1679 9.40009 13.8068 9.25053C13.4458 9.10098 13.0588 9.024 12.668 9.024ZM24.584 6.084C24.5784 5.15724 24.4078 4.23888 24.08 3.372C23.8391 2.73751 23.4664 2.16131 22.9865 1.68142C22.5067 1.20153 21.9305 0.828861 21.296 0.588C20.4291 0.260217 19.5107 0.0895487 18.584 0.0839999C17.036 -7.66345e-08 16.58 0 12.668 0C8.75597 0 8.29997 -7.66345e-08 6.75197 0.0839999C5.82521 0.0895487 4.90685 0.260217 4.03997 0.588C3.40548 0.828861 2.82928 1.20153 2.34939 1.68142C1.8695 2.16131 1.49683 2.73751 1.25597 3.372C0.928186 4.23888 0.757517 5.15724 0.751969 6.084C0.667969 7.632 0.667969 8.088 0.667969 12C0.667969 15.912 0.667969 16.368 0.751969 17.916C0.765804 18.8459 0.936189 19.7667 1.25597 20.64C1.49441 21.2723 1.86695 21.8454 2.34797 22.32C2.82605 22.8025 3.40341 23.1751 4.03997 23.412C4.90685 23.7398 5.82521 23.9105 6.75197 23.916C8.29997 24 8.75597 24 12.668 24C16.58 24 17.036 24 18.584 23.916C19.5107 23.9105 20.4291 23.7398 21.296 23.412C21.9325 23.1751 22.5099 22.8025 22.988 22.32C23.469 21.8454 23.8415 21.2723 24.08 20.64C24.4067 19.7687 24.5773 18.8466 24.584 17.916C24.668 16.368 24.668 15.912 24.668 12C24.668 8.088 24.668 7.632 24.584 6.084ZM21.536 15.684C21.4981 16.4246 21.34 17.1541 21.068 17.844C20.835 18.4196 20.4887 18.9425 20.0496 19.3816C19.6105 19.8207 19.0876 20.167 18.512 20.4C17.8156 20.6569 17.082 20.7988 16.34 20.82H8.99597C8.25397 20.7988 7.52038 20.6569 6.82397 20.4C6.2287 20.1792 5.69123 19.8264 5.25197 19.368C4.81687 18.9377 4.48103 18.4176 4.26797 17.844C4.01086 17.1481 3.87293 16.4138 3.85997 15.672V8.328C3.87293 7.58621 4.01086 6.85192 4.26797 6.156C4.48873 5.56074 4.84158 5.02326 5.29997 4.584C5.7326 4.15183 6.25205 3.81644 6.82397 3.6C7.52038 3.34307 8.25397 3.20122 8.99597 3.18H16.34C17.082 3.20122 17.8156 3.34307 18.512 3.6C19.1072 3.82076 19.6447 4.17361 20.084 4.632C20.5191 5.06225 20.8549 5.58239 21.068 6.156C21.3249 6.85241 21.4668 7.58601 21.488 8.328V12C21.488 14.472 21.572 14.724 21.536 15.672V15.684ZM19.616 6.756C19.4731 6.36838 19.2478 6.01637 18.9557 5.72426C18.6636 5.43214 18.3116 5.20688 17.924 5.064C17.3917 4.87951 16.8312 4.79015 16.268 4.8H9.06797C8.50189 4.80553 7.94125 4.91116 7.41197 5.112C7.03028 5.24839 6.682 5.46446 6.39027 5.74584C6.09854 6.02723 5.87004 6.36749 5.71997 6.744C5.54634 7.27859 5.46121 7.83796 5.46797 8.4V15.6C5.48052 16.1654 5.58593 16.7248 5.77997 17.256C5.92284 17.6436 6.14811 17.9956 6.44022 18.2877C6.73234 18.5799 7.08435 18.8051 7.47197 18.948C7.98413 19.1357 8.52282 19.241 9.06797 19.26H16.268C16.834 19.2545 17.3947 19.1488 17.924 18.948C18.3116 18.8051 18.6636 18.5799 18.9557 18.2877C19.2478 17.9956 19.4731 17.6436 19.616 17.256C19.8168 16.7267 19.9224 16.1661 19.928 15.6V8.4C19.9278 7.83341 19.8219 7.27182 19.616 6.744V6.756ZM12.668 16.584C12.0666 16.584 11.471 16.4653 10.9156 16.2348C10.3601 16.0043 9.85553 15.6665 9.43083 15.2407C9.00612 14.8148 8.6696 14.3094 8.44054 13.7533C8.21148 13.1972 8.09439 12.6014 8.09597 12C8.09597 11.0929 8.36512 10.2061 8.86935 9.45202C9.37358 8.69793 10.0902 8.1104 10.9285 7.7638C11.7668 7.4172 12.6891 7.32713 13.5787 7.50498C14.4682 7.68283 15.285 8.1206 15.9256 8.76289C16.5662 9.40517 17.0018 10.2231 17.1773 11.1131C17.3529 12.0031 17.2604 12.9251 16.9116 13.7626C16.5628 14.6 15.9734 15.315 15.218 15.8173C14.4626 16.3195 13.5751 16.5864 12.668 16.584ZM17.468 8.316C17.2027 8.28792 16.9572 8.16266 16.7788 7.96436C16.6004 7.76606 16.5017 7.50875 16.5017 7.242C16.5017 6.97525 16.6004 6.71794 16.7788 6.51964C16.9572 6.32133 17.2027 6.19608 17.468 6.168C17.7332 6.19608 17.9787 6.32133 18.1571 6.51964C18.3356 6.71794 18.4343 6.97525 18.4343 7.242C18.4343 7.50875 18.3356 7.76606 18.1571 7.96436C17.9787 8.16266 17.7332 8.28792 17.468 8.316Z" fill="#02A3A4"/>
</svg>