<svg width="22" height="19" viewBox="0 0 22 19" fill="none" xmlns="http://www.w3.org/2000/svg">
<path d="M10 15.8879V6.03789C9.31667 5.63789 8.59167 5.33789 7.825 5.13789C7.05833 4.93789 6.28333 4.83789 5.5 4.83789C4.9 4.83789 4.30417 4.89622 3.7125 5.01289C3.12083 5.12956 2.55 5.30456 2 5.53789V15.4379C2.58333 15.2379 3.1625 15.0879 3.7375 14.9879C4.3125 14.8879 4.9 14.8379 5.5 14.8379C6.28333 14.8379 7.04583 14.9254 7.7875 15.1004C8.52917 15.2754 9.26667 15.5379 10 15.8879ZM11 18.8379C10.2 18.2046 9.33333 17.7129 8.4 17.3629C7.46667 17.0129 6.5 16.8379 5.5 16.8379C4.8 16.8379 4.1125 16.9296 3.4375 17.1129C2.7625 17.2962 2.11667 17.5546 1.5 17.8879C1.15 18.0712 0.8125 18.0629 0.4875 17.8629C0.1625 17.6629 0 17.3712 0 16.9879V4.93789C0 4.75456 0.0458333 4.57956 0.1375 4.41289C0.229167 4.24622 0.366667 4.12122 0.55 4.03789C1.31667 3.63789 2.11667 3.33789 2.95 3.13789C3.78333 2.93789 4.63333 2.83789 5.5 2.83789C6.73333 2.83789 7.78333 2.97956 8.65 3.26289C9.51667 3.54622 10.45 3.97956 11.45 4.56289C11.6333 4.66289 11.7708 4.77956 11.8625 4.91289C11.9542 5.04622 12 5.22122 12 5.43789V15.8879C12.7333 15.5379 13.4708 15.2754 14.2125 15.1004C14.9542 14.9254 15.7167 14.8379 16.5 14.8379C17.1 14.8379 17.6875 14.8879 18.2625 14.9879C18.8375 15.0879 19.4167 15.2379 20 15.4379V3.41289C20.25 3.49622 20.4958 3.58789 20.7375 3.68789C20.9792 3.78789 21.2167 3.90456 21.45 4.03789C21.6333 4.12122 21.7708 4.24622 21.8625 4.41289C21.9542 4.57956 22 4.75456 22 4.93789V16.9879C22 17.3712 21.8375 17.6629 21.5125 17.8629C21.1875 18.0629 20.85 18.0712 20.5 17.8879C19.8833 17.5546 19.2375 17.2962 18.5625 17.1129C17.8875 16.9296 17.2 16.8379 16.5 16.8379C15.5 16.8379 14.5333 17.0129 13.6 17.3629C12.6667 17.7129 11.8 18.2046 11 18.8379ZM14.5 12.8379V1.83789L17.5 0.837891V11.8379L14.5 12.8379Z" fill="#FF6130"/>
</svg>
