<svg width="30" height="26" viewBox="0 0 30 26" fill="none" xmlns="http://www.w3.org/2000/svg">
<path d="M29.6867 13.0001C29.6867 13.2487 29.5879 13.4871 29.4121 13.663C29.2363 13.8388 28.9978 13.9376 28.7492 13.9376H3.51324L13.1617 23.5876C13.2538 23.6734 13.3277 23.7769 13.3789 23.8919C13.4301 24.0069 13.4577 24.131 13.4599 24.2569C13.4621 24.3828 13.439 24.5078 13.3918 24.6245C13.3447 24.7413 13.2745 24.8473 13.1855 24.9363C13.0964 25.0254 12.9904 25.0956 12.8737 25.1427C12.7569 25.1899 12.6319 25.213 12.506 25.2108C12.3801 25.2086 12.256 25.181 12.141 25.1298C12.026 25.0785 11.9225 25.0047 11.8367 24.9126L0.586675 13.6626C0.411112 13.4868 0.3125 13.2485 0.3125 13.0001C0.3125 12.7516 0.411112 12.5133 0.586675 12.3376L11.8367 1.08755C12.0144 0.921952 12.2495 0.831798 12.4923 0.836084C12.7352 0.840369 12.9669 0.938759 13.1387 1.11052C13.3105 1.28229 13.4089 1.51402 13.4131 1.7569C13.4174 1.99978 13.3273 2.23483 13.1617 2.41255L3.51324 12.0626H28.7492C28.9978 12.0626 29.2363 12.1613 29.4121 12.3371C29.5879 12.513 29.6867 12.7514 29.6867 13.0001Z" fill="#028661"/>
</svg>
