<svg xmlns="http://www.w3.org/2000/svg" width="25" height="24" viewBox="0 0 25 24" fill="none">
  <path d="M19.1947 0H6.1412C4.68961 0 3.29747 0.576642 2.27104 1.60307C1.24461 2.6295 0.667969 4.02164 0.667969 5.47323V18.5268C0.667969 19.9784 1.24461 21.3705 2.27104 22.3969C3.29747 23.4234 4.68961 24 6.1412 24H19.1947C20.6463 24 22.0385 23.4234 23.0649 22.3969C24.0913 21.3705 24.668 19.9784 24.668 18.5268V5.47323C24.668 4.02164 24.0913 2.6295 23.0649 1.60307C22.0385 0.576642 20.6463 0 19.1947 0ZM8.78243 19.3748C8.78629 19.4418 8.77641 19.5088 8.7534 19.5719C8.7304 19.6349 8.69475 19.6926 8.64864 19.7413C8.60254 19.7901 8.54695 19.8289 8.4853 19.8554C8.42364 19.8819 8.35723 19.8955 8.29012 19.8954H6.09935C5.96724 19.8922 5.84166 19.8372 5.7496 19.7424C5.65755 19.6476 5.60636 19.5205 5.60705 19.3883V10.2769C5.60524 10.2111 5.61663 10.1457 5.64056 10.0844C5.66449 10.0231 5.70047 9.96718 5.74636 9.92002C5.79226 9.87287 5.84715 9.83539 5.90777 9.8098C5.9684 9.78422 6.03355 9.77105 6.09935 9.77108H8.29012C8.35593 9.77105 8.42107 9.78422 8.4817 9.8098C8.54233 9.83539 8.59722 9.87287 8.64311 9.92002C8.68901 9.96718 8.72499 10.0231 8.74891 10.0844C8.77284 10.1457 8.78424 10.2111 8.78243 10.2769V19.3748ZM7.15412 7.85477C6.91694 7.85299 6.68242 7.80451 6.46397 7.7121C6.24552 7.61969 6.0474 7.48516 5.88094 7.31619C5.71449 7.14721 5.58294 6.94711 5.49381 6.72729C5.40469 6.50748 5.35973 6.27226 5.36151 6.03508C5.36329 5.79789 5.41176 5.56337 5.50417 5.34492C5.59658 5.12647 5.73112 4.92836 5.90009 4.7619C6.06907 4.59544 6.26917 4.46389 6.48898 4.37477C6.7088 4.28564 6.94401 4.24068 7.1812 4.24246C7.65199 4.25777 8.09816 4.45646 8.4245 4.79613C8.75085 5.1358 8.93153 5.58956 8.928 6.06059C8.92447 6.53162 8.737 6.98261 8.40559 7.31735C8.07419 7.65209 7.62509 7.84406 7.15412 7.85231M20.4674 19.36C20.4668 19.4844 20.418 19.6036 20.3312 19.6927C20.2444 19.7818 20.1264 19.8337 20.0021 19.8375H17.6895C17.565 19.8337 17.4468 19.7816 17.36 19.6923C17.2732 19.6029 17.2245 19.4833 17.2243 19.3588V15.1446C17.2243 14.5157 17.4163 12.4086 15.5554 12.4086C14.1043 12.4086 13.8175 13.8855 13.7621 14.5428V19.4548C13.7622 19.5796 13.7136 19.6995 13.6268 19.7891C13.5399 19.8787 13.4216 19.9309 13.2969 19.9348H11.0532C10.9261 19.9344 10.8043 19.8837 10.7146 19.7937C10.6248 19.7038 10.5744 19.5819 10.5744 19.4548V10.2326C10.5783 10.1079 10.6305 9.98956 10.7201 9.90271C10.8097 9.81587 10.9296 9.76733 11.0544 9.76738H13.2969C13.4217 9.76733 13.5416 9.81587 13.6312 9.90271C13.7208 9.98956 13.7731 10.1079 13.7769 10.2326V11.0265C14.1043 10.5472 14.5564 10.1665 15.0843 9.92529C15.6122 9.68411 16.196 9.59163 16.7726 9.65785C20.508 9.65785 20.4944 13.1471 20.4944 15.1311L20.4674 19.36Z" fill="#02A3A4"/>
</svg>