<svg width="103" height="102" viewBox="0 0 103 102" fill="none" xmlns="http://www.w3.org/2000/svg">
<path d="M75.9149 69.546C73.2192 69.546 71.034 67.3607 71.034 64.6651V36.2436C71.034 26.6645 63.2408 18.8711 53.6615 18.8711C44.0825 18.8711 36.2891 26.6643 36.2891 36.2436V52.7741C36.2891 55.4698 34.1038 57.655 31.4082 57.655C28.7126 57.655 26.5273 55.4698 26.5273 52.7741V36.2436C26.5273 21.2816 38.6996 9.10938 53.6615 9.10938C68.6235 9.10938 80.7957 21.2816 80.7957 36.2436V64.6651C80.7957 67.3607 78.6105 69.546 75.9149 69.546Z" fill="#6CD99C"/>
<path d="M83.3572 99.1038H23.9625C18.4172 99.1038 13.9219 94.6084 13.9219 89.0632V54.7242C13.9219 49.179 18.4172 44.6836 23.9625 44.6836H83.3572C88.9024 44.6836 93.3978 49.179 93.3978 54.7242V89.063C93.3978 94.6084 88.9024 99.1038 83.3572 99.1038Z" fill="#0CB43F"/>
<path d="M22.6374 91.0118H22.1344C20.55 91.0118 19.2656 89.7275 19.2656 88.1431V55.6441C19.2656 54.0598 20.55 52.7754 22.1344 52.7754H22.6374C24.2218 52.7754 25.5062 54.0598 25.5062 55.6441V88.1431C25.5062 89.7275 24.2218 91.0118 22.6374 91.0118Z" fill="#0CB43F"/>
</svg>
