<svg xmlns="http://www.w3.org/2000/svg" width="25" height="24" viewBox="0 0 25 24" fill="none">
  <path d="M21.75 19V20H3.75002V19L5.75002 17V11C5.75002 7.9 7.78002 5.17 10.75 4.29V4C10.75 3.46957 10.9607 2.96086 11.3358 2.58579C11.7109 2.21071 12.2196 2 12.75 2C13.2805 2 13.7892 2.21071 14.1642 2.58579C14.5393 2.96086 14.75 3.46957 14.75 4V4.29C17.72 5.17 19.75 7.9 19.75 11V17L21.75 19ZM14.75 21C14.75 21.5304 14.5393 22.0391 14.1642 22.4142C13.7892 22.7893 13.2805 23 12.75 23C12.2196 23 11.7109 22.7893 11.3358 22.4142C10.9607 22.0391 10.75 21.5304 10.75 21M20.5 3.19L19.08 4.61C19.9259 5.44535 20.5975 6.44034 21.0558 7.53726C21.5141 8.63417 21.7501 9.81118 21.75 11H23.75C23.75 8.07 22.59 5.25 20.5 3.19ZM1.75002 11H3.75002C3.75002 8.6 4.71002 6.3 6.42002 4.61L5.00002 3.19C3.9679 4.21157 3.14909 5.42807 2.59116 6.76881C2.03323 8.10955 1.74732 9.54781 1.75002 11Z" fill="white"/>
</svg>