<svg width="30" height="26" viewBox="0 0 30 26" fill="none" xmlns="http://www.w3.org/2000/svg">
<path d="M0.313325 13.0001C0.313325 13.2487 0.412096 13.4871 0.587912 13.663C0.763727 13.8388 1.00218 13.9376 1.25082 13.9376H26.4868L16.8383 23.5876C16.7462 23.6734 16.6723 23.7769 16.6211 23.8919C16.5699 24.0069 16.5423 24.131 16.5401 24.2569C16.5379 24.3828 16.561 24.5078 16.6082 24.6245C16.6553 24.7413 16.7255 24.8473 16.8145 24.9363C16.9036 25.0254 17.0096 25.0956 17.1263 25.1427C17.2431 25.1899 17.3681 25.213 17.494 25.2108C17.6199 25.2086 17.744 25.181 17.859 25.1298C17.974 25.0785 18.0775 25.0047 18.1633 24.9126L29.4133 13.6626C29.5889 13.4868 29.6875 13.2485 29.6875 13.0001C29.6875 12.7516 29.5889 12.5133 29.4133 12.3376L18.1633 1.08755C17.9856 0.921952 17.7505 0.831798 17.5077 0.836084C17.2648 0.840369 17.0331 0.938759 16.8613 1.11052C16.6895 1.28229 16.5911 1.51402 16.5869 1.7569C16.5826 1.99978 16.6727 2.23483 16.8383 2.41255L26.4868 12.0626H1.25082C1.00218 12.0626 0.763727 12.1613 0.587912 12.3371C0.412096 12.513 0.313325 12.7514 0.313325 13.0001Z" fill="#721C7A"/>
</svg>
