<svg width="145" height="38" viewBox="0 0 145 38" fill="none" xmlns="http://www.w3.org/2000/svg">
<path d="M7.21844 0.985352C11.2884 0.985352 13.3984 1.44535 13.3984 3.33535V5.26535H7.82844C6.33844 5.26535 5.90844 5.66535 5.90844 6.45535C5.90844 8.80535 14.4084 8.31535 14.4084 14.9254C14.4084 18.0654 12.5984 20.8554 7.09844 20.8554C3.48844 20.8554 0.648438 20.2654 0.648438 18.5054V16.5754H7.21844C8.56844 16.5754 9.21844 16.1454 9.21844 15.1954C9.21844 12.6254 0.748438 13.1154 0.748438 6.33535C0.738438 3.33535 2.72844 0.985352 7.21844 0.985352ZM16.3884 2.87535C16.3884 1.71535 16.9084 1.13535 18.0784 1.13535H24.4284C28.8984 1.13535 31.5184 3.13535 31.5184 7.13535C31.5184 11.1354 28.8984 12.7954 24.4284 12.7954H21.2884V20.7354H16.3884V2.87535ZM21.2884 5.26535V8.77535H24.0684C25.6484 8.77535 26.6484 8.44535 26.6484 7.00535C26.6484 5.56535 25.7084 5.26535 24.0884 5.26535H21.2884ZM41.3684 1.07535C42.1884 1.07535 42.5884 1.16535 42.7684 1.86535L47.3284 19.9354C47.3846 20.1849 47.4147 20.4396 47.4184 20.6954H43.4184C42.5884 20.6954 42.3484 20.6354 42.1884 19.9654L41.2484 16.0554H36.6484L35.7684 19.9654C35.6084 20.6354 35.3684 20.6954 34.5384 20.6954H30.6484C30.6541 20.4397 30.6842 20.1852 30.7384 19.9354L35.2584 1.86535C35.4384 1.16535 35.8384 1.07535 36.6584 1.07535H41.3684ZM37.4284 12.3854H40.4284L38.9584 6.11535H38.8384L37.4284 12.3854ZM49.0984 2.87535C49.0984 1.71535 49.6184 1.13535 50.7884 1.13535H57.1384C61.6084 1.13535 64.1384 3.13535 64.1384 7.03535C64.1384 9.69535 63.1384 11.4054 60.7184 12.3854L64.5384 19.8454C64.6893 20.1064 64.7846 20.3958 64.8184 20.6954H60.6484C59.7584 20.6954 59.3884 20.6954 58.9684 19.8154L55.5384 12.7554H53.9984V20.6954H49.0984V2.87535ZM53.9984 5.26535V8.77535H56.7784C58.1784 8.77535 59.2784 8.59535 59.2784 7.03535C59.2784 5.47535 58.1784 5.26535 56.7784 5.26535H53.9984ZM71.2684 10.0954L76.1584 2.02535C76.6184 1.22535 76.8884 1.13535 77.5284 1.13535H82.1184C82.1246 1.44079 82.0374 1.74083 81.8684 1.99535L76.2484 10.5754L82.1484 19.8454C82.3134 20.0992 82.4067 20.3929 82.4184 20.6954H77.9884C77.0684 20.6954 76.7984 20.6354 76.2784 19.8154L71.2784 11.8154V20.7354H66.3784V2.87535C66.3784 1.71535 66.8984 1.13535 68.0584 1.13535H71.2684V10.0954ZM94.2684 1.09535C95.0884 1.09535 95.4884 1.18535 95.6684 1.88535L100.228 19.9554C100.285 20.2049 100.315 20.4596 100.318 20.7154H96.3184C95.4984 20.7154 95.2484 20.6554 95.0984 19.9854L94.0984 16.0754H89.5784L88.6484 19.9654C88.4984 20.6354 88.2584 20.6954 87.4284 20.6954H83.4284C83.4341 20.4397 83.4642 20.1852 83.5184 19.9354L88.1384 1.86535C88.3284 1.16535 88.7184 1.07535 89.5484 1.07535L94.2684 1.09535ZM90.2684 12.4054H93.2684L91.7984 6.13535H91.7484L90.2684 12.4054ZM107.948 0.985352C112.018 0.985352 114.128 1.44535 114.128 3.33535V5.26535H108.558C107.068 5.26535 106.638 5.66535 106.638 6.45535C106.638 8.80535 115.128 8.31535 115.128 14.9254C115.128 18.0654 113.328 20.8554 107.828 20.8554C104.218 20.8554 101.378 20.2654 101.378 18.4954V16.5754H107.948C109.298 16.5754 109.948 16.1454 109.948 15.1954C109.948 12.6254 101.478 13.1154 101.478 6.33535C101.468 3.33535 103.458 0.985352 107.948 0.985352ZM123.078 0.985352C127.148 0.985352 129.258 1.44535 129.258 3.33535V5.26535H123.698C122.198 5.26535 121.768 5.66535 121.768 6.45535C121.768 8.80535 130.268 8.31535 130.268 14.9254C130.268 18.0654 128.458 20.8554 122.958 20.8554C119.348 20.8554 116.508 20.2654 116.508 18.4954V16.5754H123.078C124.428 16.5754 125.078 16.1454 125.078 15.1954C125.078 12.6254 116.608 13.1154 116.608 6.33535C116.648 3.33535 118.588 0.985352 123.078 0.985352ZM132.258 2.87535C132.258 1.71535 132.778 1.13535 133.938 1.13535H144.648V3.55535C144.681 3.79113 144.658 4.03134 144.581 4.25661C144.504 4.48189 144.376 4.68593 144.205 4.85231C144.035 5.01869 143.828 5.14274 143.601 5.21449C143.374 5.28623 143.133 5.30365 142.898 5.26535H137.148V8.77535H143.568V12.7754H137.148V16.5954H144.788V19.0054C144.821 19.2402 144.798 19.4793 144.722 19.7037C144.645 19.9281 144.517 20.1315 144.348 20.2976C144.179 20.4638 143.974 20.5881 143.748 20.6606C143.522 20.7332 143.283 20.7519 143.048 20.7154H133.938C132.778 20.7154 132.258 20.1354 132.258 18.9754V2.87535ZM7.21844 0.985352C11.2884 0.985352 13.3984 1.44535 13.3984 3.33535V5.26535H7.82844C6.33844 5.26535 5.90844 5.66535 5.90844 6.45535C5.90844 8.80535 14.4084 8.31535 14.4084 14.9254C14.4084 18.0654 12.5984 20.8554 7.09844 20.8554C3.48844 20.8554 0.648438 20.2654 0.648438 18.5054V16.5754H7.21844C8.56844 16.5754 9.21844 16.1454 9.21844 15.1954C9.21844 12.6254 0.748438 13.1154 0.748438 6.33535C0.738438 3.33535 2.72844 0.985352 7.21844 0.985352ZM16.3884 2.87535C16.3884 1.71535 16.9084 1.13535 18.0784 1.13535H24.4284C28.8984 1.13535 31.5184 3.13535 31.5184 7.13535C31.5184 11.1354 28.8984 12.7954 24.4284 12.7954H21.2884V20.7354H16.3884V2.87535ZM21.2884 5.26535V8.77535H24.0684C25.6484 8.77535 26.6484 8.44535 26.6484 7.00535C26.6484 5.56535 25.7084 5.26535 24.0884 5.26535H21.2884ZM41.3684 1.07535C42.1884 1.07535 42.5884 1.16535 42.7684 1.86535L47.3284 19.9354C47.3846 20.1849 47.4147 20.4396 47.4184 20.6954H43.4184C42.5884 20.6954 42.3484 20.6354 42.1884 19.9654L41.2484 16.0554H36.6484L35.7684 19.9654C35.6084 20.6354 35.3684 20.6954 34.5384 20.6954H30.6484C30.6541 20.4397 30.6842 20.1852 30.7384 19.9354L35.2584 1.86535C35.4384 1.16535 35.8384 1.07535 36.6584 1.07535H41.3684ZM37.4284 12.3854H40.4284L38.9684 6.11535H38.8384L37.4284 12.3854ZM49.1084 2.87535C49.1084 1.71535 49.6184 1.13535 50.7884 1.13535H57.1384C61.6084 1.13535 64.1384 3.13535 64.1384 7.03535C64.1384 9.69535 63.1384 11.4054 60.7184 12.3854L64.5384 19.8454C64.6893 20.1064 64.7846 20.3958 64.8184 20.6954H60.6484C59.7584 20.6954 59.3984 20.6954 58.9684 19.8154L55.5384 12.7554H53.9984V20.6954H49.1084V2.87535ZM53.9984 5.26535V8.77535H56.7784C58.1784 8.77535 59.2784 8.59535 59.2784 7.03535C59.2784 5.47535 58.1784 5.26535 56.7784 5.26535H53.9984ZM71.2684 10.0954L76.1584 2.02535C76.6184 1.22535 76.8884 1.13535 77.5284 1.13535H82.1184C82.1239 1.43928 82.0405 1.73819 81.8784 1.99535L76.2484 10.5754L82.1484 19.8454C82.3165 20.0984 82.4132 20.392 82.4284 20.6954H77.9884C77.0784 20.6954 76.7984 20.6354 76.2784 19.8154L71.2784 11.8154V20.7354H66.3784V2.87535C66.3784 1.71535 66.8984 1.13535 68.0584 1.13535H71.2684V10.0954ZM94.2684 1.09535C95.0884 1.09535 95.4884 1.18535 95.6684 1.88535L100.228 19.9554C100.285 20.2049 100.315 20.4596 100.318 20.7154H96.3184C95.4984 20.7154 95.2584 20.6554 95.0984 19.9854L94.0984 16.0754H89.5784L88.6484 19.9654C88.4984 20.6354 88.2584 20.6954 87.4284 20.6954H83.4284C83.4341 20.4397 83.4642 20.1852 83.5184 19.9354L88.1384 1.86535C88.3284 1.16535 88.7184 1.07535 89.5484 1.07535L94.2684 1.09535ZM90.2684 12.4054H93.2684L91.7984 6.13535H91.7484L90.2684 12.4054ZM107.948 0.985352C112.018 0.985352 114.128 1.44535 114.128 3.33535V5.26535H108.558C107.068 5.26535 106.638 5.66535 106.638 6.45535C106.638 8.80535 115.138 8.31535 115.138 14.9254C115.138 18.0654 113.328 20.8554 107.828 20.8554C104.218 20.8554 101.378 20.2654 101.378 18.4954V16.5754H107.948C109.298 16.5754 109.948 16.1454 109.948 15.1954C109.948 12.6254 101.478 13.1154 101.478 6.33535C101.468 3.33535 103.458 0.985352 107.948 0.985352ZM123.088 0.985352C127.148 0.985352 129.258 1.44535 129.258 3.33535V5.26535H123.698C122.198 5.26535 121.768 5.66535 121.768 6.45535C121.768 8.80535 130.268 8.31535 130.268 14.9254C130.268 18.0654 128.468 20.8554 122.958 20.8554C119.358 20.8554 116.508 20.2654 116.508 18.4954V16.5754H123.088C124.428 16.5754 125.088 16.1454 125.088 15.1954C125.088 12.6254 116.628 13.1154 116.628 6.33535C116.648 3.33535 118.588 0.985352 123.088 0.985352ZM132.258 2.87535C132.258 1.71535 132.778 1.13535 133.938 1.13535H144.648V3.55535C144.681 3.79017 144.658 4.02932 144.582 4.2537C144.505 4.47808 144.377 4.68148 144.208 4.84763C144.039 5.01378 143.834 5.13809 143.608 5.21062C143.382 5.28315 143.143 5.3019 142.908 5.26535H137.148V8.77535H143.568V12.7754H137.148V16.5954H144.788V19.0054C144.821 19.2402 144.798 19.4793 144.722 19.7037C144.645 19.9281 144.517 20.1315 144.348 20.2976C144.179 20.4638 143.974 20.5881 143.748 20.6606C143.522 20.7332 143.283 20.7519 143.048 20.7154H133.938C132.778 20.7154 132.258 20.1354 132.258 18.9754V2.87535ZM0.648438 26.0454C0.648438 25.4454 0.858438 25.1254 1.43844 25.1254H4.64844C7.27844 25.1254 8.64844 26.2154 8.64844 28.3654C8.68933 28.9566 8.53007 29.5444 8.19631 30.0342C7.86255 30.524 7.37369 30.8872 6.80844 31.0654C7.49051 31.1983 8.09984 31.5775 8.52032 32.1307C8.94079 32.684 9.14301 33.3726 9.08844 34.0654C9.08844 36.2754 7.68844 37.4254 5.08844 37.4254H1.43844C0.858438 37.3954 0.648438 37.0654 0.648438 36.5054V26.0454ZM4.64844 30.3354C5.92844 30.3354 6.79844 29.9354 6.79844 28.5354C6.79844 27.1354 5.85844 26.7154 4.48844 26.7154H2.44844V30.3354H4.64844ZM4.93844 35.8054C6.29844 35.8054 7.23844 35.3654 7.23844 33.8054C7.23844 32.2454 6.29844 31.8054 4.93844 31.8054H2.44844V35.8054H4.93844ZM16.7284 37.3954C16.6167 37.4133 16.5023 37.4049 16.3943 37.371C16.2863 37.3371 16.1877 37.2786 16.1062 37.2C16.0248 37.1215 15.9627 37.025 15.9249 36.9184C15.8871 36.8117 15.8746 36.6977 15.8884 36.5854V36.2854C15.5528 36.6607 15.1434 36.9629 14.6857 37.1728C14.228 37.3827 13.7319 37.4959 13.2284 37.5054C12.8632 37.5402 12.4947 37.4961 12.148 37.376C11.8013 37.256 11.4844 37.0628 11.2189 36.8096C10.9533 36.5564 10.7453 36.2491 10.609 35.9084C10.4726 35.5678 10.411 35.2019 10.4284 34.8354C10.4284 32.4154 12.9584 31.8354 15.9184 31.6754V30.7654C15.9184 29.4654 15.0284 29.1054 13.8584 29.1054H11.0984V28.6054C11.0984 27.7554 12.0984 27.7254 14.0984 27.7254C16.3084 27.7254 17.6084 28.6754 17.6084 30.7254V37.4354L16.7284 37.3954ZM15.8884 32.7554C13.2584 32.8154 12.1984 33.3854 12.1984 34.6154C12.1984 35.6154 12.9484 36.0554 13.9284 36.0554C14.6698 36.0482 15.3823 35.7668 15.9284 35.2654L15.8884 32.7554ZM19.8884 37.3954V27.8054H20.7584C21.3684 27.8054 21.6184 28.1354 21.6184 28.5954V28.9154C21.9524 28.5342 22.3648 28.2297 22.8273 28.0226C23.2899 27.8154 23.7917 27.7107 24.2984 27.7154C26.1584 27.7154 27.0784 28.8654 27.0784 30.6454V37.3954H25.3784V30.7254C25.3784 29.5854 24.7284 29.1054 23.6284 29.1054C22.8888 29.1389 22.183 29.4248 21.6284 29.9154V37.3954H19.8884ZM31.1084 32.0254L34.6584 28.1854C34.7358 28.0633 34.8441 27.9639 34.9723 27.8971C35.1005 27.8304 35.2441 27.7987 35.3884 27.8054H36.8584C36.8571 27.9462 36.8037 28.0816 36.7084 28.1854L32.8384 32.2754L36.7284 37.0154C36.7768 37.0652 36.8136 37.1251 36.8361 37.1908C36.8585 37.2565 36.8662 37.3263 36.8584 37.3954H35.3384C34.8984 37.3954 34.7684 37.2053 34.4984 36.8554L31.1584 32.7754V37.3954H29.4284V25.6354C29.4284 25.0654 29.6484 24.7354 30.2184 24.7354H31.1584L31.1084 32.0254Z" fill="#231F20"/>
</svg>
