<svg xmlns="http://www.w3.org/2000/svg" width="24" height="25" viewBox="0 0 24 25" fill="none">
<path fill-rule="evenodd" clip-rule="evenodd" d="M11.9947 0.841558C10.8308 0.825298 9.67518 1.04051 8.5951 1.4747C7.51502 1.90888 6.53199 2.55338 5.70313 3.37074C4.87427 4.1881 4.2161 5.16203 3.76688 6.23594C3.31765 7.30985 3.08631 8.46233 3.08631 9.62642C3.08631 10.7905 3.31765 11.943 3.76688 13.0169C4.2161 14.0908 4.87427 15.0647 5.70313 15.8821C6.53199 16.6995 7.51502 17.344 8.5951 17.7781C9.67518 18.2123 10.8308 18.4275 11.9947 18.4113C14.3249 18.4113 16.5595 17.4856 18.2072 15.838C19.8548 14.1904 20.7805 11.9557 20.7805 9.62556C20.7805 7.29544 19.8548 5.06076 18.2072 3.41312C16.5595 1.76548 14.3249 0.841558 11.9947 0.841558ZM12.3427 4.99527L13.5136 7.3507C13.539 7.41054 13.5802 7.46239 13.6327 7.50072C13.6852 7.53905 13.7471 7.56245 13.8119 7.56842L16.4107 7.9627C16.4852 7.97221 16.5553 8.00276 16.613 8.05076C16.6707 8.09876 16.7134 8.16221 16.7363 8.23367C16.7591 8.30513 16.7611 8.38163 16.742 8.45418C16.7229 8.52673 16.6835 8.59233 16.6285 8.64327L14.7119 10.4673C14.6831 10.5217 14.668 10.5823 14.668 10.6438C14.668 10.7054 14.6831 10.766 14.7119 10.8204L15.0787 13.4056C15.0942 13.48 15.0878 13.5573 15.0603 13.6282C15.0328 13.6991 14.9854 13.7605 14.9238 13.805C14.8622 13.8496 14.789 13.8754 14.7131 13.8794C14.6372 13.8833 14.5618 13.8652 14.4959 13.8273L12.1816 12.6033C12.1216 12.576 12.0564 12.562 11.9905 12.562C11.9245 12.562 11.8594 12.576 11.7993 12.6033L9.48503 13.8273C9.41916 13.8652 9.34371 13.8833 9.2678 13.8794C9.19188 13.8754 9.11872 13.8496 9.05713 13.805C8.99553 13.7605 8.94814 13.6991 8.92065 13.6282C8.89316 13.5573 8.88674 13.48 8.90217 13.4056L9.33589 10.8204C9.35478 10.7605 9.3584 10.6968 9.34642 10.6351C9.33445 10.5735 9.30726 10.5158 9.26732 10.4673L7.34903 8.62956C7.29751 8.57811 7.26124 8.51341 7.24424 8.44261C7.22724 8.37181 7.23017 8.29769 7.25271 8.22846C7.27526 8.15923 7.31653 8.09759 7.37196 8.05038C7.42739 8.00317 7.49481 7.97223 7.56675 7.96099L10.1673 7.58213C10.2321 7.57616 10.294 7.55277 10.3465 7.51443C10.399 7.4761 10.4402 7.42426 10.4656 7.36442L11.6365 5.00899C11.6676 4.94213 11.7169 4.88536 11.7787 4.84513C11.8406 4.80489 11.9124 4.7828 11.9862 4.78137C12.0599 4.77995 12.1326 4.79923 12.1959 4.83704C12.2593 4.87486 12.3107 4.92968 12.3445 4.99527H12.3427ZM21.0856 15.689C19.6064 17.9013 17.3735 19.5006 14.8027 20.189L17.2233 24.3821C17.308 24.529 17.4343 24.6474 17.5863 24.7225C17.7383 24.7975 17.9091 24.8258 18.0772 24.8038C18.2453 24.7818 18.403 24.7104 18.5305 24.5988C18.6581 24.4871 18.7496 24.3401 18.7936 24.1764L19.6679 20.921L22.9216 21.7936C23.0853 21.8373 23.2583 21.8314 23.4187 21.7769C23.5791 21.7223 23.7198 21.6214 23.8229 21.4869C23.926 21.3525 23.9869 21.1905 23.9979 21.0214C24.009 20.8523 23.9697 20.6837 23.885 20.537L21.0856 15.689ZM9.19532 20.1907C6.623 19.5077 4.38799 17.9102 2.90903 15.6976L0.114747 20.537C0.0300574 20.6837 -0.00923612 20.8523 0.00183057 21.0214C0.0128973 21.1905 0.0738276 21.3525 0.176924 21.4869C0.280021 21.6214 0.420658 21.7223 0.581068 21.7769C0.741479 21.8314 0.914466 21.8373 1.07818 21.7936L4.3336 20.921L5.20618 24.1764C5.25017 24.3401 5.34172 24.4871 5.46924 24.5988C5.59676 24.7104 5.75453 24.7818 5.9226 24.8038C6.09067 24.8258 6.2615 24.7975 6.41348 24.7225C6.56546 24.6474 6.69178 24.529 6.77646 24.3821L9.19532 20.1907Z" fill="white"/>
</svg>